<?xml version="1.0" encoding="iso-8859-1"?>
<!-- Generator: Adobe Illustrator 19.0.0, SVG Export Plug-In . SVG Version: 6.00 Build 0)  -->
<svg version="1.1" id="Capa_1" xmlns="http://www.w3.org/2000/svg" xmlns:xlink="http://www.w3.org/1999/xlink" x="0px" y="0px"
	 viewBox="0 0 512 512" style="enable-background:new 0 0 512 512;" xml:space="preserve">
<path style="fill:#444444;" d="M376,151h-38.7l-40.8-40.5c-2.7-3-6.6-4.5-10.5-4.5h-60c-3.9,0-7.8,1.5-10.5,4.5L174.7,151H136
	c-24.9,0-45,20.1-45,45v150c0,24.9,20.1,45,45,45h240c24.9,0,45-20.1,45-45V196C421,171.1,400.9,151,376,151z"/>
<path style="fill:#5A5A5A;" d="M374.15,391H136c-24.9,0-45-20.1-45-45V196c0-24.9,20.1-45,45-45h30.81L374.15,391z"/>
<path style="fill:#ECECF1;" d="M256,181c-18.3,0-35.1,6.6-48,17.4c-0.05,0.04-0.09,0.08-0.14,0.12C191.44,212.32,181,232.97,181,256
	c0,41.4,33.6,75,75,75c19.1,0,36.71-7.12,49.89-19.01c0.07-0.06,0.14-0.13,0.21-0.19C321.4,298,331,278.2,331,256
	C331,214.6,297.4,181,256,181z"/>
<path style="fill:#E2E2E7;" d="M305.89,311.99C292.71,323.88,275.1,331,256,331c-41.4,0-75-33.6-75-75
	c0-23.03,10.44-43.68,26.86-57.48L305.89,311.99z"/>
<path style="fill:#00AB94;" d="M256,211c-10.8,0-20.7,3.6-28.2,10.2c-0.07,0.05-0.13,0.11-0.2,0.16
	C217.51,229.47,211,241.99,211,256c0,24.9,20.1,45,45,45c11.84,0,22.52-4.38,30.29-11.71c0.11-0.09,0.21-0.19,0.31-0.29
	c9-8.4,14.4-20.1,14.4-33C301,231.1,280.9,211,256,211z"/>
<path style="fill:#00CCB2;" d="M286.29,289.29C278.52,296.62,267.84,301,256,301c-24.9,0-45-20.1-45-45
	c0-14.01,6.51-26.53,16.6-34.64L286.29,289.29z"/>
<path style="fill:#FF4B00;" d="M256,0C192.7,0,134.8,24.1,90.1,62.2C35.5,109.3,0,178.6,0,256c0,140.7,115.3,256,256,256
	c64.2,0,123-23.7,168-63.3c53.4-46.8,88-116.2,88-192.7C512,115.3,396.7,0,256,0z M404.26,425.85c-0.02,0.01-0.04,0.03-0.06,0.05
	C364.6,461,312.7,482,256,482C131.8,482,30,380.2,30,256c0-68.4,31.6-129.6,79.9-170.7c0.03-0.03,0.06-0.05,0.09-0.08
	C149.28,51.37,200.24,30,256,30c124.2,0,226,101.8,226,226C482,323.47,451.33,384.75,404.26,425.85z"/>
<path style="fill:#FF641A;" d="M424,448.7C379,488.3,320.2,512,256,512C115.3,512,0,396.7,0,256c0-77.4,35.5-146.7,90.1-193.8
	l19.89,23.02c-0.03,0.03-0.06,0.05-0.09,0.08C61.6,126.4,30,187.6,30,256c0,124.2,101.8,226,226,226c56.7,0,108.6-21,148.2-56.1
	c0.02-0.02,0.04-0.04,0.06-0.05L424,448.7z"/>
<path style="fill:#FF4B00;" d="M424,448.7c-6,5.4-15.6,4.8-21-1.5L88.6,83.5c-5.4-6.3-4.8-15.9,1.5-21.3s15.6-4.5,21.3,1.5
	l314.4,364C431.2,433.7,430.3,443.3,424,448.7z"/>
<path style="fill:#FF641A;" d="M424,448.7c-6,5.4-15.6,4.8-21-1.5L88.6,83.5c-5.4-6.3-4.8-15.9,1.5-21.3L424,448.7z"/>
<g>
</g>
<g>
</g>
<g>
</g>
<g>
</g>
<g>
</g>
<g>
</g>
<g>
</g>
<g>
</g>
<g>
</g>
<g>
</g>
<g>
</g>
<g>
</g>
<g>
</g>
<g>
</g>
<g>
</g>
</svg>
